<svg xmlns="http://www.w3.org/2000/svg" width="60" height="60" viewBox="0 0 60 60"><g id="Group_1819" data-name="Group 1819" transform="translate(-3429 -4678)"><g id="Group_1806" data-name="Group 1806"><path id="Path_6330" fill="#6e77a3" d="M456,49.994A27.507,27.507,0,1,1,428.486,77.5,27.538,27.538,0,0,1,456,49.994m0-2.493a30,30,0,1,0,30,30,30,30,0,0,0-30-30Z" data-name="Path 6330" transform="translate(3003.006 4630.499)"/><g id="Group_1779" data-name="Group 1779" transform="translate(3450.6 4690.8)"><path id="Path_6320" fill="#6e77a3" d="M466.719,85.684h7.25V68.1h5.593l.689-6.193h-6.282V58.056c0-1.367.569-1.487,1.254-1.487h4.932V50.542l-5.826-.018c-6.462,0-7.61,4.494-7.61,7.366v4.02H462.66V68.1h4.059Z" data-name="Path 6320" transform="translate(-462.66 -50.524)"/></g></g></g></svg>